<svg xmlns="http://www.w3.org/2000/svg" viewBox="0 0 148.81 115.43"><title>Valorant Champions Tour logo - Brandlogos.net</title><path d="M368.07,326.29a2,2,0,0,1,.55.4l18.43,23a27,27,0,0,1,2.13,2.82c-3,.08-6.06,0-9.08,0a4.82,4.82,0,0,1-1.4-.1,5.65,5.65,0,0,1-.91-1c-3.15-4-6.33-7.9-9.48-11.87-.35-.37-.25-.9-.28-1.36C368.07,334.26,368,330.27,368.07,326.29Z" transform="translate(-309.59 -326.28)" style="fill:#ff4655"/><path d="M386.79,342.46c4.36-5.38,8.64-10.82,13-16.17a6.58,6.58,0,0,1,.14,2c0,3.48,0,7,0,10.44.07.77-.62,1.26-1,1.83a38.93,38.93,0,0,1-2.56,3.07c-1.84.2-3.73,0-5.59.08-1.62,0-3.25.06-4.87-.06A12.59,12.59,0,0,1,386.79,342.46Z" transform="translate(-309.59 -326.28)" style="fill:#ff4655"/><path d="M350.89,343.76c3-.13,6.08,0,9.12-.06.61,0,1.4-.13,1.77.49q5.5,6.87,11,13.76a1.5,1.5,0,0,1,.38,1.14c0,2.1,0,4.19,0,6.29a1.37,1.37,0,0,1-.4.84l-10.88,13.6a1.17,1.17,0,0,1-1.13.59c-3.28,0-6.55,0-9.83,0a6.74,6.74,0,0,1,1-1.49q6.48-8.07,13-16.15a1.5,1.5,0,0,0,.4-.74,7.86,7.86,0,0,0-1-1.39l-12.08-15.08A16.44,16.44,0,0,1,350.89,343.76Z" transform="translate(-309.59 -326.28)" style="fill:#ff4655"/><path d="M406.57,343.83a3.79,3.79,0,0,1,1.41-.13c3,0,6.1-.07,9.14.06a18.22,18.22,0,0,1-1.55,2.06q-6.3,7.88-12.61,15.76a.6.6,0,0,0-.07.87c4.26,5.35,8.54,10.67,12.81,16a10.11,10.11,0,0,1,1.38,1.93c-3.28,0-6.56,0-9.84,0a1,1,0,0,1-1-.49L395.18,366c-.37-.38-.29-.93-.31-1.41,0-1.93,0-3.87,0-5.8a1.21,1.21,0,0,1,.35-.87l10.23-12.84A10.64,10.64,0,0,1,406.57,343.83Z" transform="translate(-309.59 -326.28)" style="fill:#ff4655"/><path d="M378.08,372.28c.28-.35.59-.79,1.1-.75q4.84,0,9.67,0c.49,0,.79.41,1.07.74q4.64,5.8,9.29,11.58c.36.49.91,1,.82,1.63q0,4.85,0,9.69a17.34,17.34,0,0,1-.09,2.68,14.53,14.53,0,0,1-1.55-1.79l-13.09-16.26a11.08,11.08,0,0,0-1.11-1.29c-.33-.15-.54.17-.72.38L369.78,396c-.52.64-1,1.31-1.59,1.91a3.08,3.08,0,0,1-.15-1c0-3.88,0-7.76,0-11.63a1.19,1.19,0,0,1,.34-.85Q373.23,378.33,378.08,372.28Z" transform="translate(-309.59 -326.28)" style="fill:#ff4655"/><path d="M373.35,403.72a6.54,6.54,0,1,1-5.67,7.42A6.59,6.59,0,0,1,373.35,403.72Zm.09,2.26a4.35,4.35,0,0,0-2.68,6.78,4.28,4.28,0,0,0,3.79,1.76,4.32,4.32,0,1,0-1.11-8.54Z" transform="translate(-309.59 -326.28)" style="fill:#ff4655"/><path d="M339.28,404a18.68,18.68,0,0,1,2.27-.06c.12,2.9,0,5.8.06,8.71,2.23-2.72,4.39-5.49,6.6-8.23.18-.19.35-.47.66-.46.88-.05,1.76,0,2.64,0-3.09,4-6.34,8-9.48,12-.5.82-1.62.43-2.42.48-.45.07-.27-.43-.32-.68C339.28,411.87,339.3,408,339.28,404Z" transform="translate(-309.59 -326.28)" style="fill:#ff4655"/><path d="M354.27,404.69c.59-1,1.94-.79,2.86-.59,0,4.12.05,8.25,0,12.37a7.85,7.85,0,0,1-2.34-.11c-1.21-1.35-2.27-2.83-3.44-4.23l-3,3.82c-.19.18-.34.49-.64.51-.9.07-1.82,0-2.72,0C348,412.49,351.18,408.63,354.27,404.69Zm-1.63,5.56c.73.91,1.42,1.84,2.21,2.69q0-2.71,0-5.42C354.1,408.42,353.39,409.35,352.64,410.25Z" transform="translate(-309.59 -326.28)" style="fill:#ff4655"/><path d="M359.93,404.14c.6-.34,1.47-.11,2.17-.13.24.47.07,1.08.12,1.6,0,2.86,0,5.72,0,8.57q2.66,0,5.33,0a6.84,6.84,0,0,1-1.6,2.19c-2,.16-4,0-6,.08C359.87,412.36,359.9,408.24,359.93,404.14Z" transform="translate(-309.59 -326.28)" style="fill:#ff4655"/><path d="M382.63,404c3.33,0,6.67,0,10,0a21,21,0,0,1,0,3c-.86,1.42-2.18,2.56-3,4,1.4,1.87,2.94,3.63,4.34,5.5a20.82,20.82,0,0,1-2.72,0c-.3,0-.44-.32-.63-.5-1.33-1.69-2.68-3.36-4-5.05,1.21-1.61,2.51-3.15,3.72-4.76q-2.66,0-5.33,0c-.07,3.43,0,6.87,0,10.31a20.06,20.06,0,0,1-2.32,0C382.61,412.3,382.56,408.14,382.63,404Z" transform="translate(-309.59 -326.28)" style="fill:#ff4655"/><path d="M395.21,404a16.41,16.41,0,0,1,2.26,0,4.48,4.48,0,0,1,.91,1c2.5,3.16,5,6.3,7.53,9.45a17.93,17.93,0,0,1,1.52,2,11.6,11.6,0,0,1-2.95-.12c-1.21-1.35-2.27-2.85-3.44-4.23-1,1.28-2,2.55-3.06,3.83-.61.93-1.88.44-2.79.49C395.2,412.31,395.15,408.15,395.21,404Zm2.34,3.56c0,1.79,0,3.58,0,5.38.77-.85,1.43-1.79,2.19-2.64C399.06,409.35,398.32,408.44,397.55,407.56Z" transform="translate(-309.59 -326.28)" style="fill:#ff4655"/><path d="M405.3,404.13c.23-.27.67-.09,1-.15.52.07,1.21-.18,1.58.3,2.29,2.77,4.45,5.64,6.78,8.39,0-2.87-.08-5.74.06-8.6a11.69,11.69,0,0,1,2.22-.08c.13,4.16.06,8.32,0,12.49-.93-.11-2.22.42-2.81-.55-2.18-2.72-4.31-5.49-6.54-8.17,0,1.74.06,3.49,0,5.23a29.25,29.25,0,0,1-2.06-2.48c-.32-.34-.2-.83-.23-1.25C405.3,407.54,405.23,405.83,405.3,404.13Z" transform="translate(-309.59 -326.28)" style="fill:#ff4655"/><path d="M418.67,404c2.77,0,5.55-.06,8.33,0a12.77,12.77,0,0,1,1.79,2.13c-1.45.13-2.91,0-4.36.06,0,3.41,0,6.82,0,10.23a5.89,5.89,0,0,1-2.26-.09c-.09-3.37,0-6.74,0-10.11-1.07,0-2.15.05-3.22,0-.41-.07-.24-.58-.29-.87A11.52,11.52,0,0,1,418.67,404Z" transform="translate(-309.59 -326.28)" style="fill:#ff4655"/><path d="M426.5,415.34l1.35,0c-.1.32-.2.63-.32,1l-.07-.87-.65,0c0,.36,0,.72,0,1.09C426.72,416.16,426.62,415.74,426.5,415.34Z" transform="translate(-309.59 -326.28)" style="fill:#ff4655"/><path d="M428.4,415.19c.56.21.29.93.38,1.39l-.13-.62c-.25.15-.65.4-.77,0l.65-.21Z" transform="translate(-309.59 -326.28)" style="fill:#ff4655"/><path d="M310.9,421.19c1.24-.86,2.83-.64,4.26-.68s2.9,0,3.84,1.12.82,2.54.83,3.85,0,2.45,0,3.67a39.09,39.09,0,0,1-4.07.09c0-1.58.06-3.16,0-4.73-.21-.61-1-.47-1.51-.38s-.4.72-.42,1.11c0,4,0,8.09,0,12.14-.09.79.87.79,1.41.71a.63.63,0,0,0,.61-.72c0-1.69,0-3.38,0-5.07,1.36,0,2.72,0,4.08.07-.09,2.06.05,4.12-.08,6.17a3.13,3.13,0,0,1-1.89,2.81,12,12,0,0,1-4,.34c-1.27,0-2.74-.1-3.6-1.17s-.78-2.57-.79-3.88c0-4.13,0-8.26,0-12.39A3.66,3.66,0,0,1,310.9,421.19Z" transform="translate(-309.59 -326.28)"/><path d="M321.28,420.69c1.39,0,2.79,0,4.18,0-.06,2.77,0,5.55,0,8.32l2.08,0c0-2.8,0-5.61,0-8.41,1.37,0,2.74,0,4.12,0,0,6.93,0,13.86,0,20.78h-4.15c0-2.9,0-5.8,0-8.7l-2.08,0c0,2.89,0,5.79,0,8.68-1.39,0-2.77,0-4.16,0C321.29,434.54,321.27,427.61,321.28,420.69Z" transform="translate(-309.59 -326.28)"/><path d="M335.36,420.71c1.89,0,3.77,0,5.66,0,.88,6.93,1.82,13.85,2.67,20.79-1.36,0-2.71,0-4.07,0q-.16-1.51-.32-3h-2.61a24.07,24.07,0,0,1-.38,3c-1.23.05-2.46,0-3.68,0C333.53,434.57,334.42,427.64,335.36,420.71Zm2.57,5.25q-.47,4.44-.9,8.88h1.85C338.57,431.89,338.32,428.92,337.93,426Z" transform="translate(-309.59 -326.28)"/><path d="M344.6,420.7c2,0,4,0,6,0,.48,4.11.69,8.24,1.28,12.33.34-4.1.8-8.2,1.19-12.29,2,0,4,0,6,0,0,6.92,0,13.83,0,20.75H355c0-4.45-.07-8.9.05-13.35a26.07,26.07,0,0,0-.46,3.15q-.59,5.08-1.17,10.16h-3.92c-.51-4.45-1.05-8.9-1.5-13.36-.18,4.45,0,8.9-.08,13.35-1.12,0-2.23,0-3.35,0C344.64,434.52,344.59,427.61,344.6,420.7Z" transform="translate(-309.59 -326.28)"/><path d="M360.58,420.7h5.95a4.14,4.14,0,0,1,3.08,1,4.27,4.27,0,0,1,.93,3.06c0,1.94,0,3.87,0,5.81a3.57,3.57,0,0,1-1.39,3.09c-1.32.84-2.95.52-4.42.66.07,2.38,0,4.76,0,7.15-1.39.08-2.79.07-4.19,0C360.61,434.54,360.58,427.62,360.58,420.7Zm4.16,3.56c0,2.15,0,4.3,0,6.46.53,0,1.32.23,1.61-.39.11-1.37,0-2.76,0-4.13a5.07,5.07,0,0,0-.13-1.66C365.86,424.13,365.24,424.33,364.75,424.25Z" transform="translate(-309.59 -326.28)"/><path d="M371.73,420.7c1.39,0,2.78,0,4.17,0,0,6.92,0,13.83,0,20.75a39.07,39.07,0,0,1-4.2,0C371.76,434.54,371.72,427.62,371.73,420.7Z" transform="translate(-309.59 -326.28)"/><path d="M379.5,420.76a14.41,14.41,0,0,1,3.78-.25,5,5,0,0,1,3.37.85,4.06,4.06,0,0,1,1.09,3.14c0,4,0,8.08,0,12.12,0,1.37.11,3-.91,4s-2.83,1-4.29,1.07-3.05.13-4.18-.91-1-2.43-1-3.71c0-4.36,0-8.72,0-13.07A3.24,3.24,0,0,1,379.5,420.76Zm2.43,3.45c-.47.1-.4.66-.42,1,0,4.13,0,8.25,0,12.38.06.72,1,.56,1.51.53s.56-.65.55-1c0-4.11,0-8.22,0-12.34C383.61,423.85,382.5,424.09,381.93,424.21Z" transform="translate(-309.59 -326.28)"/><path d="M389.17,420.7h4.25c.8,3.37,1.58,6.75,2.36,10.13.07-3.36,0-6.73,0-10.09,1.21,0,2.42,0,3.62,0,0,6.91,0,13.83,0,20.74-1.33,0-2.67.09-4-.06-.89-3.63-1.75-7.27-2.54-10.92-.22,3.65,0,7.32,0,11-1.21,0-2.42,0-3.62,0C389.2,434.54,389.16,427.61,389.17,420.7Z" transform="translate(-309.59 -326.28)"/><path d="M402.17,421.06a6.67,6.67,0,0,1,3.41-.55,7,7,0,0,1,3.62.57,3.29,3.29,0,0,1,1.43,2.69c.09,1.47,0,2.94,0,4.41-1.35,0-2.71,0-4.06,0,0-1.14,0-2.28,0-3.42.12-1-1.9-1-1.79,0s-.24,2.08.3,2.94c1.5,1.33,3.27,2.34,4.77,3.67,1.25,1.28.8,3.18.87,4.78s.19,3.13-.77,4.37-2.39,1.2-3.68,1.18-2.81.16-4-.51a3.29,3.29,0,0,1-1.52-2.85c-.07-1.65,0-3.3,0-4.94,1.35,0,2.69,0,4,0,.13,1.5-.06,3,.1,4.51a1.23,1.23,0,0,0,1.75,0,20.65,20.65,0,0,0,0-3.12,1.41,1.41,0,0,0-.68-1.12c-1.3-1-2.62-1.91-3.91-2.88a3.41,3.41,0,0,1-1.36-2.8c0-1.37,0-2.75,0-4.12A3.26,3.26,0,0,1,402.17,421.06Z" transform="translate(-309.59 -326.28)"/><path d="M414.78,420.68c3.06,0,6.12,0,9.18,0,0,1.24,0,2.49,0,3.73h-2.49c0,5.69,0,11.38,0,17.07-1.39,0-2.78,0-4.17,0,0-5.69,0-11.38,0-17.07a10.81,10.81,0,0,1-2.5-.1C414.71,423.1,414.74,421.89,414.78,420.68Z" transform="translate(-309.59 -326.28)"/><path d="M427,420.75a15,15,0,0,1,3.79-.24,4.82,4.82,0,0,1,3.36.88,4.11,4.11,0,0,1,1.05,3.12c0,4,0,8.07,0,12.1a9.7,9.7,0,0,1-.25,2.9,3,3,0,0,1-2.21,2,17.87,17.87,0,0,1-3.65.2,4.5,4.5,0,0,1-3.37-1,4.6,4.6,0,0,1-.93-3.37c0-4.43,0-8.85,0-13.27A3.25,3.25,0,0,1,427,420.75Zm2.45,3.41c-.5.09-.47.68-.47,1.07,0,4,0,8.08,0,12.11-.17,1.14,2.22,1.16,2.05,0,0-4.2,0-8.4,0-12.59C431.07,423.89,430,424,429.44,424.16Z" transform="translate(-309.59 -326.28)"/><path d="M436.63,420.69c1.37,0,2.74,0,4.11,0,.09,5.57,0,11.14.05,16.71-.08,1,2,1,1.91,0,0-5.55,0-11.11,0-16.66,1.39,0,2.78,0,4.18,0-.06,5.7,0,11.4,0,17.1a3.73,3.73,0,0,1-1.31,3.17c-1.2.83-2.72.64-4.1.67s-2.72,0-3.74-.84a4.08,4.08,0,0,1-1.1-3.24C436.63,432,436.61,426.32,436.63,420.69Z" transform="translate(-309.59 -326.28)"/><path d="M448.31,420.7c2.15,0,4.31,0,6.47,0a3.48,3.48,0,0,1,3.06,1.48c.74,1.3.51,2.85.55,4.28a11.43,11.43,0,0,1-.31,3.82,3.2,3.2,0,0,1-1.36,1.4,2.28,2.28,0,0,1,1.66,2.25c.06,2.52,0,5,0,7.55h-4.16q0-3.41,0-6.81c0-.33,0-.72-.25-1a4.69,4.69,0,0,0-1.52-.14c0,2.63,0,5.26,0,7.89-1.39,0-2.78,0-4.17,0C448.33,434.53,448.3,427.61,448.31,420.7Zm4.14,3.63c0,1.93,0,3.86,0,5.79.54-.1,1.3.18,1.67-.37.16-1.33,0-2.69.08-4,0-.44.1-1-.31-1.32A5.18,5.18,0,0,0,452.45,424.32Z" transform="translate(-309.59 -326.28)"/></svg>